<?xml version="1.0" encoding="utf-8"?>
<!-- Generator: Adobe Illustrator 21.0.0, SVG Export Plug-In . SVG Version: 6.00 Build 0)  -->
<svg version="1.1" id="Layer_1" xmlns="http://www.w3.org/2000/svg" xmlns:xlink="http://www.w3.org/1999/xlink" x="0px" y="0px"
	 viewBox="0 0 18.3 18.3" style="enable-background:new 0 0 18.3 18.3;" xml:space="preserve">
<style type="text/css">
	.st0{fill:#FFFFFF;}
</style>
<g>
	<path class="st0" d="M12.6,0H5.7C2.6,0,0,2.6,0,5.7v6.9c0,3.2,2.6,5.7,5.7,5.7h6.9c3.2,0,5.7-2.6,5.7-5.7V5.7
		C18.3,2.6,15.8,0,12.6,0z M16.6,12.6c0,2.2-1.8,4-4,4H5.7c-2.2,0-4-1.8-4-4V5.7c0-2.2,1.8-4,4-4h6.9c2.2,0,4,1.8,4,4V12.6z"/>
	<path class="st0" d="M9.2,4.6c-2.5,0-4.6,2.1-4.6,4.6s2.1,4.6,4.6,4.6s4.6-2.1,4.6-4.6S11.7,4.6,9.2,4.6z M9.2,12
		c-1.6,0-2.9-1.3-2.9-2.9c0-1.6,1.3-2.9,2.9-2.9S12,7.6,12,9.2C12,10.7,10.7,12,9.2,12z"/>
	<circle class="st0" cx="14.1" cy="4.2" r="0.6"/>
</g>
</svg>
