<?xml version="1.0" encoding="utf-8"?>
<!-- Generator: Adobe Illustrator 21.0.0, SVG Export Plug-In . SVG Version: 6.00 Build 0)  -->
<svg version="1.1" id="Layer_1" xmlns="http://www.w3.org/2000/svg" xmlns:xlink="http://www.w3.org/1999/xlink" x="0px" y="0px"
	 viewBox="0 0 18.3 18.3" style="enable-background:new 0 0 18.3 18.3;" xml:space="preserve">
<style type="text/css">
	.st0{fill:#FFFFFF;}
</style>
<g id="XMLID_5_">
	<path id="XMLID_6_" class="st0" d="M17.6,3.8C17,3,15.7,2.7,13.4,2.7H4.9c-2.4,0-3.6,0.3-4.3,1.2C0,4.7,0,5.9,0,7.6v3.2
		c0,3.2,0.8,4.9,4.9,4.9h8.5c2,0,3.1-0.3,3.9-1c0.7-0.7,1.1-1.9,1.1-3.9V7.6C18.3,5.8,18.3,4.6,17.6,3.8z M11.8,9.6l-3.8,2
		c-0.1,0-0.2,0.1-0.3,0.1c-0.1,0-0.2,0-0.3-0.1c-0.2-0.1-0.3-0.3-0.3-0.5v-4c0-0.2,0.1-0.4,0.3-0.5c0.2-0.1,0.4-0.1,0.6,0l3.8,2
		c0.2,0.1,0.3,0.3,0.3,0.5C12.1,9.3,12,9.5,11.8,9.6z"/>
</g>
</svg>
