<?xml version="1.0" encoding="utf-8"?>
<!-- Generator: Adobe Illustrator 19.0.0, SVG Export Plug-In . SVG Version: 6.00 Build 0)  -->
<svg version="1.1" id="Layer_1" xmlns="http://www.w3.org/2000/svg" xmlns:xlink="http://www.w3.org/1999/xlink" x="0px" y="0px"
	 viewBox="0 0 146.1 26.3" style="enable-background:new 0 0 146.1 26.3;" xml:space="preserve">
<style type="text/css">
	.st0{fill:#b3b3b3;}
	.st1{fill:#FFFFFF;}
</style>
<g>
	<path class="st0" d="M37.7,0.6H7.5C3.4,0.6,0,4,0,8.1v10c0,4.2,3.4,7.5,7.5,7.5h7.5h2.5h20.1c4.2,0,7.5-3.4,7.5-7.5
		c0-1.9-0.7-3.7-1.9-5c1.2-1.3,1.9-3.1,1.9-5C45.2,4,41.8,0.6,37.7,0.6z M17.6,20.7h-10c-1.4,0-2.5-1.1-2.5-2.5
		c0-1.4,1.1-2.5,2.5-2.5h10c1.4,0,2.5,1.1,2.5,2.5C20.1,19.5,19,20.7,17.6,20.7z M32.6,15.7h5c1.4,0,2.5,1.1,2.5,2.5
		c0,1.4-1.1,2.5-2.5,2.5h-13c0.3-0.8,0.4-1.6,0.4-2.5c0-4.2-3.4-7.5-7.5-7.5h-10c-0.9,0-1.7,0.2-2.5,0.4V8.1c0-1.4,1.1-2.5,2.5-2.5
		h30.1c1.4,0,2.5,1.1,2.5,2.5s-1.1,2.5-2.5,2.5h-5c-1.4,0-2.5,1.1-2.5,2.5S31.2,15.7,32.6,15.7z"/>
	<path class="st1" d="M71.3,0.6c4.5,0,7.8,2.6,7.8,6.7c0,1.8-0.6,3.4-2,4.3c2.3,1.2,3.7,3.2,3.7,6.3c0,4.3-3.5,7.8-8.3,7.8H55.1V0.6
		H71.3z M60.8,10.3h10.7c1.2,0,2-1.1,2-2.3c0-1.1-0.6-2.3-2.5-2.3H60.8V10.3z M60.8,20.6h11.5c1.8,0,2.9-1.1,2.9-2.7
		c0-1.6-1.1-2.7-2.8-2.7H60.8V20.6z"/>
	<path class="st1" d="M89.3,0.6v25.1h-5.7V0.6H89.3z"/>
	<path class="st1" d="M118.2,0.6v5.1H108v20h-5.7v-20H92.1V0.6H118.2z"/>
	<path class="st1" d="M142.7,7.9c-3-2-5.9-2.9-9.9-2.9c-4.9,0-6.1,1.3-6.1,2.7c0,1.5,1.3,1.8,3.3,2l7.5,0.9c5.4,0.6,8.7,2.9,8.7,7.5
		c0,5.6-5.5,8.2-13,8.2c-5.1,0-9-1.1-13-4l2.7-4.4c3.5,2.4,6.8,3.5,10.9,3.5c4,0,6.9-1,6.9-3.1c0-1.4-0.7-2-2.9-2.3l-8.4-1
		c-5.1-0.6-8.3-2.6-8.3-7.3c0-5.3,5.3-7.8,11.7-7.8c4.7,0,8.8,0.8,12.7,3.7L142.7,7.9z"/>
</g>
</svg>
