<?xml version="1.0" encoding="utf-8"?>
<!-- Generator: Adobe Illustrator 21.0.0, SVG Export Plug-In . SVG Version: 6.00 Build 0)  -->
<svg version="1.1" id="Layer_1" xmlns="http://www.w3.org/2000/svg" xmlns:xlink="http://www.w3.org/1999/xlink" x="0px" y="0px"
	 viewBox="0 0 25.5 25.5" style="enable-background:new 0 0 25.5 25.5;" xml:space="preserve">
<style type="text/css">
	.st0{opacity:0.8;}
	.st1{fill:#FFFFFF;}
</style>
<g class="st0">
	<path class="st1" d="M25.2,5.8c-0.2-0.2-0.4-0.3-0.7-0.3H6.3c0,0-0.1,0-0.1,0L5.5,3.3C5.4,3.1,5.2,2.9,5,2.8L1.2,1.3
		c-0.4-0.2-0.9,0-1.1,0.5C0,2.2,0.2,2.7,0.6,2.8l3.4,1.3l4.2,12.1c-0.2,0.1-0.3,0.2-0.4,0.4l-1.2,3.4c-0.1,0.2,0,0.4,0.1,0.6
		C6.9,20.9,7.1,21,7.3,21h0.6c-0.4,0.4-0.6,1-0.6,1.6c0,1.3,1.1,2.4,2.4,2.4s2.4-1.1,2.4-2.4c0-0.6-0.2-1.2-0.6-1.6h5.3
		c-0.4,0.4-0.6,1-0.6,1.6c0,1.3,1.1,2.4,2.4,2.4c1.3,0,2.4-1.1,2.4-2.4c0-0.6-0.2-1.2-0.6-1.6h0.8c0.4,0,0.7-0.3,0.7-0.7
		s-0.3-0.7-0.7-0.7h-13L9,17.5c0.1,0,0.2,0.1,0.3,0.1h11.9c0.4,0,0.7-0.2,0.8-0.6l3.4-10.5C25.4,6.2,25.4,6,25.2,5.8z M9.7,23.7
		c-0.6,0-1.1-0.5-1.1-1.1c0-0.6,0.5-1.1,1.1-1.1c0.6,0,1.1,0.5,1.1,1.1C10.8,23.2,10.3,23.7,9.7,23.7z M18.6,23.7
		c-0.6,0-1.1-0.5-1.1-1.1c0-0.6,0.5-1.1,1.1-1.1c0.6,0,1.1,0.5,1.1,1.1C19.7,23.2,19.2,23.7,18.6,23.7z M22.9,8.9h-4.1V7.1h4.7
		L22.9,8.9z M21.7,12.6h-2.9v-2.1h3.6L21.7,12.6z M13.4,12.6v-2.1h3.7v2.1H13.4z M17.1,14.2V16h-3.7v-1.8H17.1z M8,10.5h3.8v2.1h-3
		L8,10.5z M13.4,8.9V7.1h3.7v1.8H13.4z M11.8,7.1v1.8H7.4L6.8,7.1H11.8z M9.3,14.2h2.5V16H9.9L9.3,14.2z M18.7,16v-1.8h2.4L20.6,16
		H18.7z"/>
</g>
</svg>
