<?xml version="1.0" encoding="utf-8"?>
<!-- Generator: Adobe Illustrator 21.0.0, SVG Export Plug-In . SVG Version: 6.00 Build 0)  -->
<svg version="1.1" id="Layer_1" xmlns="http://www.w3.org/2000/svg" xmlns:xlink="http://www.w3.org/1999/xlink" x="0px" y="0px"
	 viewBox="0 0 16.2 16.2" style="enable-background:new 0 0 16.2 16.2;" xml:space="preserve">
<style type="text/css">
	.st0{fill:#8b35ae;}
</style>
<path class="st0" d="M11.2,3.2c-0.3,0-0.5-0.2-0.5-0.5V0.1H2.8c-0.3,0-0.5,0.2-0.5,0.5v15c0,0.3,0.2,0.5,0.5,0.5l10.7,0c0,0,0,0,0,0
	c0.1,0,0.2-0.1,0.3-0.2c0.1-0.1,0.1-0.2,0.1-0.4V3.2H11.2z M11.2,11.8H4.8c-0.3,0-0.5-0.2-0.5-0.5c0-0.3,0.2-0.5,0.5-0.5h6.4
	c0.3,0,0.5,0.2,0.5,0.5C11.7,11.6,11.5,11.8,11.2,11.8z M11.2,9.7H4.8c-0.3,0-0.5-0.2-0.5-0.5c0-0.3,0.2-0.5,0.5-0.5h6.4
	c0.3,0,0.5,0.2,0.5,0.5C11.7,9.4,11.5,9.7,11.2,9.7z M11.2,7.5H4.8C4.5,7.5,4.3,7.3,4.3,7c0-0.3,0.2-0.5,0.5-0.5h6.4
	c0.3,0,0.5,0.2,0.5,0.5C11.7,7.3,11.5,7.5,11.2,7.5z M11.2,5.5H4.8C4.5,5.5,4.3,5.3,4.3,5c0-0.3,0.2-0.5,0.5-0.5h6.4
	c0.3,0,0.5,0.2,0.5,0.5C11.7,5.3,11.5,5.5,11.2,5.5z M13.7,2.2h-2.1v-2L13.7,2.2z"/>
</svg>
