<?xml version="1.0" encoding="utf-8"?>
<!-- Generator: Adobe Illustrator 21.0.0, SVG Export Plug-In . SVG Version: 6.00 Build 0)  -->
<svg version="1.1" id="Layer_1" xmlns="http://www.w3.org/2000/svg" xmlns:xlink="http://www.w3.org/1999/xlink" x="0px" y="0px"
	 viewBox="0 0 18.3 18.3" style="enable-background:new 0 0 18.3 18.3;" xml:space="preserve">
<style type="text/css">
	.st0{fill:#FFFFFF;}
</style>
<g>
	<g>
		<g>
			<path class="st0" d="M2.8,6.8C3,6.9,3.6,7.3,4.6,8c1,0.7,1.8,1.2,2.3,1.6c0.1,0,0.2,0.1,0.4,0.3c0.2,0.1,0.4,0.3,0.5,0.3
				c0.1,0.1,0.3,0.2,0.5,0.3c0.2,0.1,0.3,0.2,0.5,0.2c0.2,0.1,0.3,0.1,0.4,0.1h0h0c0.1,0,0.3,0,0.4-0.1c0.2-0.1,0.3-0.1,0.5-0.2
				c0.2-0.1,0.3-0.2,0.5-0.3c0.1-0.1,0.3-0.2,0.5-0.3c0.2-0.1,0.3-0.2,0.4-0.3c0.5-0.4,1.9-1.3,4.1-2.9c0.4-0.3,0.8-0.7,1.1-1.1
				c0.3-0.4,0.4-0.9,0.4-1.3c0-0.4-0.1-0.7-0.4-1c-0.3-0.3-0.6-0.4-1-0.4h-13c-0.5,0-0.8,0.2-1,0.5C1.4,3.7,1.3,4.1,1.3,4.6
				c0,0.4,0.2,0.8,0.5,1.2C2.1,6.2,2.4,6.5,2.8,6.8z"/>
			<path class="st0" d="M16.2,7.7c-1.9,1.3-3.4,2.3-4.4,3c-0.3,0.2-0.6,0.4-0.8,0.6c-0.2,0.1-0.5,0.3-0.8,0.4
				c-0.3,0.1-0.7,0.2-1,0.2h0h0c-0.3,0-0.6-0.1-1-0.2c-0.3-0.1-0.6-0.3-0.8-0.4c-0.2-0.1-0.5-0.3-0.8-0.6c-0.8-0.6-2.3-1.6-4.4-3
				C1.8,7.5,1.5,7.2,1.3,7v7c0,0.4,0.1,0.7,0.4,1c0.3,0.3,0.6,0.4,1,0.4h13c0.4,0,0.7-0.1,1-0.4c0.3-0.3,0.4-0.6,0.4-1V7
				C16.8,7.2,16.5,7.5,16.2,7.7z"/>
		</g>
	</g>
</g>
</svg>
