<?xml version="1.0" encoding="utf-8"?>
<!-- Generator: Adobe Illustrator 21.0.0, SVG Export Plug-In . SVG Version: 6.00 Build 0)  -->
<svg version="1.1" id="Layer_1" xmlns="http://www.w3.org/2000/svg" xmlns:xlink="http://www.w3.org/1999/xlink" x="0px" y="0px"
	 viewBox="0 0 14.9 14.9" style="enable-background:new 0 0 14.9 14.9;" xml:space="preserve">
<style type="text/css">
	.st0{fill:url(#SVGID_1_);}
	.st1{fill:url(#SVGID_2_);}
</style>
<g>
	<linearGradient id="SVGID_1_" gradientUnits="userSpaceOnUse" x1="1.178" y1="5.6615" x2="13.7322" y2="5.6615">
		<stop  offset="0" style="stop-color:#7568C7"/>
		<stop  offset="1" style="stop-color:#963CB7"/>
	</linearGradient>
	<path class="st0" d="M2.4,5.6C2.5,5.7,3,6,3.8,6.6c0.8,0.6,1.4,1,1.8,1.3c0,0,0.1,0.1,0.3,0.2s0.3,0.2,0.4,0.3s0.2,0.1,0.4,0.2
		C6.8,8.6,7,8.7,7.1,8.7c0.1,0,0.2,0.1,0.4,0.1h0h0c0.1,0,0.2,0,0.4-0.1c0.1,0,0.3-0.1,0.4-0.2c0.1-0.1,0.3-0.2,0.4-0.2
		S8.8,8.2,9,8.1s0.3-0.2,0.3-0.2c0.4-0.3,1.5-1.1,3.3-2.3c0.3-0.2,0.6-0.5,0.9-0.9c0.2-0.3,0.3-0.7,0.3-1.1c0-0.3-0.1-0.6-0.3-0.8
		c-0.2-0.2-0.5-0.3-0.8-0.3H2.3c-0.4,0-0.6,0.1-0.8,0.4S1.2,3.4,1.2,3.8c0,0.3,0.1,0.6,0.4,1C1.8,5.1,2.1,5.4,2.4,5.6z"/>
	<linearGradient id="SVGID_2_" gradientUnits="userSpaceOnUse" x1="1.178" y1="9.0454" x2="13.7322" y2="9.0454">
		<stop  offset="0" style="stop-color:#7568C7"/>
		<stop  offset="1" style="stop-color:#963CB7"/>
	</linearGradient>
	<path class="st1" d="M9.5,8.7C9.3,8.9,9.1,9.1,8.9,9.2C8.7,9.3,8.5,9.4,8.2,9.5C8,9.6,7.7,9.7,7.5,9.7h0h0C7.2,9.7,7,9.6,6.7,9.5
		S6.2,9.3,6,9.2C5.8,9.1,5.6,8.9,5.4,8.7C4.7,8.3,3.6,7.5,1.9,6.3C1.6,6.1,1.4,5.9,1.2,5.7v5.6c0,0.3,0.1,0.6,0.3,0.8
		s0.5,0.3,0.8,0.3h10.3c0.3,0,0.6-0.1,0.8-0.3c0.2-0.2,0.3-0.5,0.3-0.8V5.7c-0.2,0.2-0.4,0.4-0.7,0.6C11.5,7.3,10.3,8.2,9.5,8.7z"/>
</g>
</svg>
