<?xml version="1.0" encoding="utf-8"?>
<!-- Generator: Adobe Illustrator 21.0.0, SVG Export Plug-In . SVG Version: 6.00 Build 0)  -->
<svg version="1.1" id="Layer_1" xmlns="http://www.w3.org/2000/svg" xmlns:xlink="http://www.w3.org/1999/xlink" x="0px" y="0px"
	 viewBox="0 0 18.3 18.3" style="enable-background:new 0 0 18.3 18.3;" xml:space="preserve">
<style type="text/css">
	.st0{fill:#FFFFFF;}
</style>
<g>
	<g>
		<g>
			<path class="st0" d="M16.6,13.5c0,0.2,0,0.5-0.2,0.6l-2.1,2.1c-0.1,0.1-0.2,0.2-0.4,0.3c-0.2,0.1-0.3,0.1-0.5,0.1c0,0,0,0-0.1,0
				c-0.1,0-0.1,0-0.2,0c-0.2,0-0.5,0-1-0.1c-0.4-0.1-1-0.2-1.6-0.5c-0.6-0.3-1.4-0.7-2.2-1.2c-0.8-0.5-1.7-1.3-2.6-2.2
				c-0.7-0.7-1.3-1.4-1.8-2.1C3.4,9.8,3,9.2,2.7,8.7C2.4,8.1,2.2,7.6,2.1,7.1C1.9,6.7,1.8,6.3,1.8,6S1.7,5.4,1.7,5.2s0-0.3,0-0.3
				c0-0.1,0.1-0.3,0.1-0.5C1.9,4.2,2,4.1,2.1,4l2.1-2.1c0.1-0.1,0.3-0.2,0.5-0.2c0.1,0,0.3,0,0.4,0.1S5.3,2,5.4,2.1l1.7,3.2
				c0.1,0.2,0.1,0.4,0.1,0.6c0,0.2-0.1,0.4-0.3,0.5L6.1,7.2c0,0,0,0.1-0.1,0.1c0,0,0,0.1,0,0.1c0,0.2,0.1,0.5,0.3,0.8
				c0.1,0.3,0.3,0.6,0.6,0.9C7.2,9.4,7.5,9.8,8,10.3c0.5,0.5,0.9,0.9,1.3,1.1c0.4,0.3,0.7,0.5,0.9,0.6c0.2,0.1,0.4,0.2,0.6,0.2
				l0.2,0c0,0,0.1,0,0.1,0c0,0,0.1,0,0.1-0.1l0.9-0.9c0.2-0.2,0.4-0.3,0.7-0.3c0.2,0,0.3,0,0.4,0.1h0l3.1,1.8
				C16.5,13.1,16.6,13.3,16.6,13.5z"/>
		</g>
	</g>
</g>
</svg>
