<?xml version="1.0" encoding="utf-8"?>
<!-- Generator: Adobe Illustrator 21.0.0, SVG Export Plug-In . SVG Version: 6.00 Build 0)  -->
<svg version="1.1" id="Layer_1" xmlns="http://www.w3.org/2000/svg" xmlns:xlink="http://www.w3.org/1999/xlink" x="0px" y="0px"
	 viewBox="0 0 14.9 14.9" style="enable-background:new 0 0 14.9 14.9;" xml:space="preserve">
<style type="text/css">
	.st0{fill:url(#SVGID_1_);}
</style>
<linearGradient id="SVGID_1_" gradientUnits="userSpaceOnUse" x1="1.178" y1="7.4551" x2="13.7322" y2="7.4551">
	<stop  offset="0" style="stop-color:#7568C7"/>
	<stop  offset="1" style="stop-color:#963CB7"/>
</linearGradient>
<path class="st0" d="M1.5,5.7C1.6,6.1,1.8,6.6,2,7c0.2,0.5,0.6,1,1,1.5c0.4,0.6,0.9,1.1,1.5,1.8c0.8,0.8,1.5,1.4,2.2,1.9
	c0.7,0.5,1.3,0.8,1.9,1c0.5,0.2,1,0.4,1.4,0.4c0.4,0.1,0.6,0.1,0.8,0.1c0.1,0,0.1,0,0.2,0c0,0,0.1,0,0.1,0c0.1,0,0.3-0.1,0.4-0.1
	c0.1-0.1,0.2-0.1,0.3-0.2l1.8-1.8c0.2-0.2,0.2-0.3,0.2-0.5c0-0.2-0.1-0.3-0.3-0.4l-2.6-1.5h0C10.7,9.1,10.6,9,10.5,9
	c-0.2,0-0.4,0.1-0.6,0.2L9.1,10c0,0,0,0-0.1,0c0,0-0.1,0-0.1,0l-0.2,0C8.7,10,8.5,10,8.3,9.9C8.1,9.8,7.9,9.6,7.5,9.4
	c-0.3-0.2-0.7-0.5-1.1-1C6.1,8,5.8,7.7,5.5,7.4C5.3,7.1,5.2,6.8,5,6.6C4.9,6.4,4.8,6.1,4.8,6c0,0,0-0.1,0-0.1c0,0,0-0.1,0-0.1
	l0.7-0.7C5.6,5,5.7,4.9,5.8,4.7c0-0.2,0-0.3-0.1-0.5L4.3,1.5C4.2,1.4,4.1,1.3,4,1.3C3.9,1.2,3.8,1.2,3.7,1.2c-0.2,0-0.3,0.1-0.4,0.2
	L1.5,3.1C1.5,3.2,1.4,3.3,1.3,3.4C1.3,3.6,1.2,3.7,1.2,3.8c0,0,0,0.1,0,0.3c0,0.2,0,0.4,0.1,0.7C1.3,5,1.4,5.4,1.5,5.7z"/>
</svg>
