<?xml version="1.0" encoding="utf-8"?>
<!-- Generator: Adobe Illustrator 21.0.0, SVG Export Plug-In . SVG Version: 6.00 Build 0)  -->
<svg version="1.1" id="Layer_1" xmlns="http://www.w3.org/2000/svg" xmlns:xlink="http://www.w3.org/1999/xlink" x="0px" y="0px"
	 viewBox="0 0 14.9 14.9" style="enable-background:new 0 0 14.9 14.9;" xml:space="preserve">
<style type="text/css">
	.st0{fill:url(#SVGID_1_);}
</style>
<linearGradient id="SVGID_1_" gradientUnits="userSpaceOnUse" x1="2.053" y1="7.4551" x2="12.8572" y2="7.4551">
	<stop  offset="0" style="stop-color:#7568C7"/>
	<stop  offset="1" style="stop-color:#963CB7"/>
</linearGradient>
<path class="st0" d="M7.5,0c-3,0-5.4,2.4-5.4,5.4c0,3.7,4.8,9.1,5,9.4c0.2,0.2,0.5,0.2,0.7,0c0.2-0.2,5-5.7,5-9.4
	C12.9,2.4,10.4,0,7.5,0z M7.5,8.1C6,8.1,4.7,6.9,4.7,5.4c0-1.5,1.2-2.7,2.7-2.7c1.5,0,2.7,1.2,2.7,2.7C10.2,6.9,9,8.1,7.5,8.1z"/>
</svg>
