<?xml version="1.0" encoding="utf-8"?>
<!-- Generator: Adobe Illustrator 21.0.0, SVG Export Plug-In . SVG Version: 6.00 Build 0)  -->
<svg version="1.1" id="Layer_1" xmlns="http://www.w3.org/2000/svg" xmlns:xlink="http://www.w3.org/1999/xlink" x="0px" y="0px"
	 viewBox="0 0 25.5 25.5" style="enable-background:new 0 0 25.5 25.5;" xml:space="preserve">
<style type="text/css">
	.st0{opacity:0.8;fill:#FFFFFF;}
</style>
<g>
	<path class="st0" d="M12.6,1.5C6.2,1.5,0.9,6.7,0.9,13.1c0,6.5,5.2,11.7,11.7,11.7c6.5,0,11.7-5.2,11.7-11.7
		C24.3,6.7,19.1,1.5,12.6,1.5z M6.1,21.2l3.1-1.7c0.1-0.1,0.2-0.1,0.3-0.2c0.3-0.3,0.4-0.6,0.4-1v-1.4c0,0-1-1.2-1.4-2.8
		c-0.3-0.2-0.5-0.5-0.5-0.9v-1.5c0-0.3,0.1-0.6,0.4-0.8V8.7c0,0-0.4-3.4,4.1-3.4c1.1,0,2,0.2,2.6,0.5c1.8,1,1.6,2.9,1.6,2.9v2.2
		c0.2,0.2,0.4,0.5,0.4,0.8v1.5c0,0.5-0.3,0.9-0.8,1.1c-0.3,0.8-0.6,1.6-1.1,2.2c-0.1,0.2-0.2,0.3-0.3,0.4v1.4c0,0.5,0.3,1,0.8,1.2
		l1.8,0.9l1.6,0.8c-1.8,1.4-4,2.2-6.4,2.2C10.2,23.5,7.9,22.7,6.1,21.2z"/>
</g>
</svg>
